<svg width="30" height="30" viewBox="0 0 30 30" fill="none" xmlns="http://www.w3.org/2000/svg">
<path d="M28.7347 3.75H6.12173L5.622 1C5.49707 0.375 4.8724 0 4.24773 0C4.1228 0 1.24933 0 1.24933 0C0.499733 0 0 0.5 0 1.25C0 2 0.499733 2.5 1.24933 2.5H3.3732L3.99787 6.25L6.24667 21.25C6.3716 21.875 6.7464 22.5 7.496 22.5H26.236C26.9856 22.5 27.4853 21.75 27.4853 21.25L29.984 5C30.1089 4.375 29.4843 3.75 28.7347 3.75ZM25.2365 20H8.49547L6.49653 6.25H27.1105L25.2365 20Z" fill="black"/>
<path d="M21.8636 23.75C20.1145 23.75 18.7402 25.125 18.7402 26.875C18.7402 28.625 20.1145 30 21.8636 30C23.6126 30 24.9869 28.625 24.9869 26.875C24.9869 25.125 23.6126 23.75 21.8636 23.75ZM21.8636 28.75C20.8641 28.75 19.9896 27.875 19.9896 26.875C19.9896 25.875 20.8641 25 21.8636 25C22.863 25 23.7376 25.875 23.7376 26.875C23.7376 27.875 22.863 28.75 21.8636 28.75Z" fill="black"/>
<path d="M10.6194 23.75C8.87036 23.75 7.49609 25.125 7.49609 26.875C7.49609 28.625 8.87036 30 10.6194 30C12.3685 30 13.7428 28.625 13.7428 26.875C13.7428 25.125 12.3685 23.75 10.6194 23.75ZM10.6194 28.75C9.61996 28.75 8.74543 27.875 8.74543 26.875C8.74543 25.875 9.61996 25 10.6194 25C11.6189 25 12.4934 25.875 12.4934 26.875C12.4934 27.875 11.6189 28.75 10.6194 28.75Z" fill="black"/>
</svg>
