<svg width="24" height="24" viewBox="0 0 24 24" fill="none" xmlns="http://www.w3.org/2000/svg">
<path d="M22.3585 0.539062H2.71568C2.00528 0.539063 1.32397 0.821268 0.821645 1.3236C0.319315 1.82593 0.0371094 2.50723 0.0371094 3.21763L0.0371094 22.8605C0.0371094 23.5709 0.319315 24.2522 0.821645 24.7545C1.32397 25.2569 2.00528 25.5391 2.71568 25.5391H10.3747V17.0396H6.8591V13.0391H10.3747V9.98996C10.3747 6.52176 12.4395 4.60603 15.6018 4.60603C17.1164 4.60603 18.7001 4.87612 18.7001 4.87612V8.28013H16.9551C15.2358 8.28013 14.6995 9.3471 14.6995 10.4414V13.0391H18.5377L17.9238 17.0396H14.6995V25.5391H22.3585C23.0689 25.5391 23.7502 25.2569 24.2526 24.7545C24.7549 24.2522 25.0371 23.5709 25.0371 22.8605V3.21763C25.0371 2.50723 24.7549 1.82593 24.2526 1.3236C23.7502 0.821268 23.0689 0.539063 22.3585 0.539062V0.539062Z" fill="black"/>
</svg>
