<svg width="30" height="30" viewBox="0 0 30 30" fill="none" xmlns="http://www.w3.org/2000/svg">
<path d="M27.5 3.59163C24.25 0.136124 19 0.136124 15.75 3.59163C15.5 3.85744 15.125 4.25615 14.875 4.65486C14.625 4.25615 14.375 3.99034 14 3.59163C10.875 0.269028 5.75 0.269028 2.5 3.59163C-0.75 7.04713 -0.75 12.6291 2.5 16.0846L15 29.375L27.5 16.0846C30.75 12.6291 30.75 7.04713 27.5 3.59163ZM25.875 14.3569C25.25 15.0214 15 25.9195 15 25.9195C15 25.9195 4.75 14.8885 4.125 14.3569C1.875 11.9646 1.875 7.97746 4.125 5.45228C6.375 3.06001 10.125 3.06001 12.5 5.45228C13 5.9839 15 8.11036 15 8.11036C15 8.11036 17 5.9839 17.5 5.45228C19.75 3.06001 23.5 3.06001 25.875 5.45228C28.25 7.84455 28.25 11.8317 25.875 14.3569Z" fill="black"/>
<path d="M21.25 6.38281V7.71185C22.625 7.71185 23.75 8.90799 23.75 10.3699C23.75 11.1674 23.5 11.8319 23 12.2306L23.875 13.1609C24.5 12.4964 25 11.4332 25 10.3699C25 8.11056 23.375 6.38281 21.25 6.38281Z" fill="black"/>
</svg>
