<svg width="25" height="25" viewBox="0 0 25 25" fill="none" xmlns="http://www.w3.org/2000/svg">
<path d="M15.1841 9.60938V13.577C15.1841 13.6775 15.106 13.7556 15.0056 13.7556H14.3694C14.308 13.7556 14.2522 13.7221 14.2243 13.683L12.4051 11.2277V13.5826C12.4051 13.683 12.327 13.7612 12.2266 13.7612H11.5904C11.49 13.7612 11.4118 13.683 11.4118 13.5826V9.61496C11.4118 9.51451 11.49 9.43639 11.5904 9.43639H12.221C12.2768 9.43639 12.3382 9.46429 12.3661 9.51451L14.1853 11.9699V9.61496C14.1853 9.51451 14.2634 9.43639 14.3638 9.43639H15C15.1004 9.43081 15.1841 9.51451 15.1841 9.60938ZM10.6083 9.43081H9.9721C9.87165 9.43081 9.79353 9.50893 9.79353 9.60938V13.577C9.79353 13.6775 9.87165 13.7556 9.9721 13.7556H10.6083C10.7087 13.7556 10.7868 13.6775 10.7868 13.577V9.60938C10.7868 9.51451 10.7087 9.43081 10.6083 9.43081ZM9.07366 12.7567H7.33817V9.60938C7.33817 9.50893 7.26005 9.43081 7.1596 9.43081H6.52344C6.423 9.43081 6.34487 9.50893 6.34487 9.60938V13.577C6.34487 13.6272 6.36161 13.6663 6.39509 13.6998C6.42858 13.7277 6.46764 13.75 6.51786 13.75H9.06808C9.16853 13.75 9.24665 13.6719 9.24665 13.5714V12.9353C9.24665 12.8404 9.16853 12.7567 9.07366 12.7567ZM18.5324 9.43081H15.9821C15.8873 9.43081 15.8036 9.50893 15.8036 9.60938V13.577C15.8036 13.6719 15.8817 13.7556 15.9821 13.7556H18.5324C18.6328 13.7556 18.7109 13.6775 18.7109 13.577V12.9408C18.7109 12.8404 18.6328 12.7623 18.5324 12.7623H16.7969V12.0926H18.5324C18.6328 12.0926 18.7109 12.0145 18.7109 11.9141V11.2723C18.7109 11.1719 18.6328 11.0938 18.5324 11.0938H16.7969V10.4241H18.5324C18.6328 10.4241 18.7109 10.346 18.7109 10.2455V9.60938C18.7054 9.51451 18.6272 9.43081 18.5324 9.43081ZM25 4.55916V20.4799C24.9944 22.9799 22.9464 25.0056 20.4408 25H4.5201C2.0201 24.9944 -0.00556885 22.9408 1.1502e-05 20.4408V4.5201C0.00559185 2.0201 2.05916 -0.00556885 4.55916 1.1502e-05H20.4799C22.9799 0.00559185 25.0056 2.05358 25 4.55916ZM21.5625 11.4007C21.5625 7.32701 17.4777 4.01228 12.4609 4.01228C7.4442 4.01228 3.35938 7.32701 3.35938 11.4007C3.35938 15.0502 6.59599 18.1083 10.971 18.6886C12.0368 18.9174 11.9141 19.308 11.6741 20.7422C11.635 20.971 11.49 21.6406 12.4609 21.2333C13.4319 20.8259 17.7009 18.1473 19.6149 15.9487C20.9319 14.4978 21.5625 13.0301 21.5625 11.4007Z" fill="black"/>
</svg>
