<svg width="30" height="30" viewBox="0 0 30 30" fill="none" xmlns="http://www.w3.org/2000/svg">
<path fill-rule="evenodd" clip-rule="evenodd" d="M14.9989 0C10.8006 0 7.36156 3.34237 7.36156 7.50904C7.36156 10.1871 8.78228 12.5246 10.9121 13.8531C4.94512 15.656 0.524561 21.268 0.00771061 27.5964C-0.104227 28.9669 1.01964 30 2.2711 30H27.7289C28.9804 30 30.1043 28.9669 29.9923 27.5964C29.4754 21.2675 25.0542 15.655 19.0864 13.8526C21.2158 12.5241 22.6363 10.1867 22.6363 7.50904C22.6363 3.34237 19.1971 0 14.9989 0ZM9.6759 7.50904C9.6759 4.65747 12.0394 2.31048 14.9989 2.31048C17.9584 2.31048 20.3219 4.65747 20.3219 7.50904C20.3219 10.3606 17.9584 12.7076 14.9989 12.7076C12.0394 12.7076 9.6759 10.3606 9.6759 7.50904ZM3.68858 27.6895C2.95451 27.6895 2.37359 27.0578 2.51364 26.3371C3.67644 20.3546 8.87258 15.5595 15 15.5595C21.1275 15.5595 26.3237 20.3546 27.4864 26.3371C27.6264 27.0578 27.0455 27.6895 26.3115 27.6895H3.68858Z" fill="black"/>
</svg>
